<svg xmlns="http://www.w3.org/2000/svg" viewBox="0 0 48 48" width="24" height="24" fill="none" stroke="#000000" stroke-width="2" stroke-linecap="round" stroke-linejoin="round" style="opacity:1;"><path fill="none"    d="M11.662 25.333c0-2.963 2.37-5.333 5.136-5.333s5.334 2.37 5.334 5.333c0 1.383-.593 2.766-1.58 3.753c-2.174 1.778-8.89 6.914-8.89 6.914h10.47m10.373-8h-2.6c-2.2 0-4 1.8-4 4h0c0 2.2 1.8 4 4 4h2.6c2.2 0 4-1.8 4-4h0c0-2.2-1.8-4-4-4m0 0c2.2 0 4-1.8 4-4h0c0-2.2-1.8-4-4-4h-2.6c-2.2 0-4 1.8-4 4h0c0 2.2 1.8 4 4 4"/><circle cx="32.5" cy="11" r="2.5"/><circle cx="15.5" cy="11" r="2.5"/><rect width="37" height="37" x="5.5" y="5.5" rx="4" ry="4"/></svg>